<svg class="logotipo-brasilcap" xmlns="http://www.w3.org/2000/svg" viewBox="0 0 100 22.3">
	<path class="shape1" fill="#ffffff" d="M27.3,2.2a1.9,1.9,0,0,0-1,1.5,2.1,2.1,0,0,0,2.1,2.4,1.9,1.9,0,0,0,1.2-.6,1.8,1.8,0,0,0,.6-1.4,1.9,1.9,0,0,0-1.1-1.9A1.5,1.5,0,0,0,27.3,2.2Zm47.1-.1a2.5,2.5,0,0,0-1.1,1.5,2.1,2.1,0,0,0,1.9,2.5,2.4,2.4,0,0,0,2-1.7A2.1,2.1,0,0,0,74.4,2.1Zm-37,4.7L36,7.6l-.6.5V6.9H31.9V18.6h3.3V14.9c0-3.8.1-4.3.9-4.8a1.7,1.7,0,0,1,2,.2l.6.5v3.7c.1,2.1.1,3.8.2,3.9s2.5.3,3,.1.3-.5.3-3.2a28.7,28.7,0,0,1,.2-3.9,1.7,1.7,0,0,1,2.6-1.3c.7.5.8,1.3.8,5.1s-.1,3.4,1.8,3.4,1.7.4,1.7-4.4-.1-5.4-.9-6.2a4.4,4.4,0,0,0-6.2-.1l-.5.4-.7-.6a2.4,2.4,0,0,0-1.5-.9A3,3,0,0,0,37.4,6.8Zm45.7,0a6.1,6.1,0,0,0-4.6,7.5,6.1,6.1,0,0,0,3.1,3.9c.8.5,1.1.5,2.8.5a6.2,6.2,0,0,0,2.5-.3c.9-.5,2.1-1.5,2.1-1.8a5.8,5.8,0,0,0-1.9-1.9l-.9.5a2.7,2.7,0,0,1-3.2,0,3.3,3.3,0,0,1-.3-4.8,1.9,1.9,0,0,1,1.7-.6,2.2,2.2,0,0,1,1.8.6,2,2,0,0,0,.9.4l1.1-1.1c1-1.1,1-1.2-.4-2.1a4.2,4.2,0,0,0-2.1-.8A5.7,5.7,0,0,0,83.1,6.8Zm-17,.1a4.2,4.2,0,0,0-2.3,1.6,2.6,2.6,0,0,0-.5,1.8,6.3,6.3,0,0,0,.2,1.6,4.9,4.9,0,0,0,3,2.1c1.5.4,2.6,1,2.4,1.4l-.5.5c-.6.3-2,0-3.3-.7s-.9-.5-1.2-.2l-.8,1.1c-.4.7-.4.8-.1,1.1s.5.4.8.6a6.5,6.5,0,0,0,3.8.9c1.5,0,1.7,0,2.5-.5a3.5,3.5,0,0,0,2-3.9c-.3-1.3-1.2-2-3.6-3s-2-.8-2.1-1.1.5-.7,1.1-.7a5.6,5.6,0,0,1,2.3.7c.4.4.9.1,1.4-.8a4.2,4.2,0,0,0,.5-1.2c0-.3-.4-.5-1.5-1A11.4,11.4,0,0,0,66.1,6.9Zm26.7,0c-1.2.2-2.2.6-2.2.9a4.8,4.8,0,0,0,.7,2.4c.2.2.4.1,1-.1a9.4,9.4,0,0,1,2-.3c1.3,0,1.4.1,1.9.5a1.6,1.6,0,0,1,.5.9c0,.3-.1.3-2.3.3a8.1,8.1,0,0,0-2.9.3,3.5,3.5,0,0,0-2,4,3.1,3.1,0,0,0,1.8,2.4,3,3,0,0,0,2.1.5c1.4,0,2.8-.4,2.8-.8h.3c.1,0,.2.1.2.3s.4.5,1.9.5H100V14.1a23.5,23.5,0,0,0-.2-4.6c-.1,0-.1-.1-.1-.2s-1.3-1.7-2-2.1S94.3,6.7,92.8,6.9Zm3.6,6.9c.5.3.4,1.2-.2,1.8a2.1,2.1,0,0,1-1.5.6c-1,.1-1.1,0-1.5-.4s-.5-.7-.3-1.4S95.3,13.2,96.4,13.8ZM26.5,7a106.9,106.9,0,0,0,.1,11.3c.1.3.3.3,1.6.3h1.6c.2-.1.2-1.4.2-5.8V7H26.5Zm24.6.2c0,.1-.1,2.1,0,4.4,0,4.1,0,4.2.5,5.1a3.5,3.5,0,0,0,2.7,2,4.4,4.4,0,0,0,3.1-.7l.8-.6a2.2,2.2,0,0,1,.1.6v.6h3.2V7H58.3v3.6c0,2.8-.1,3.6-.3,4.1a1.8,1.8,0,0,1-2.7.5l-.5-.4V7H52.9C51.5,6.9,51.2,7,51.1,7.2ZM73.6,7c-.1.1-.1,2.6-.1,5.7,0,4.6,0,5.6.2,5.7s.8.2,1.7.2h1.4V6.9H73.6ZM10,.5a1.9,1.9,0,0,0,.1,2.3,1.6,1.6,0,0,0,1.8.1c.4-.2.5-.4.6-.9A1.9,1.9,0,0,0,12.1.5,1.3,1.3,0,0,0,10,.5Zm-3.6.7c-.3.2-.3.4-.3,1.1s.4,1.6,1.5,1.5,1.2-.5,1.2-1.6S8.4.9,7.4.9A1.7,1.7,0,0,0,6.4,1.2Zm7.4-.1a1.3,1.3,0,0,0-.5.7,1.3,1.3,0,0,0,.9,1.9c.9.2,1.1.1,1.6-.4a1.5,1.5,0,0,0,.1-2A1.2,1.2,0,0,0,14.8.9ZM3.7,3a1.4,1.4,0,0,0-.4,2.4l.8.6A1.6,1.6,0,0,0,5.7,5,1.5,1.5,0,0,0,3.7,3Zm13,.3a1.6,1.6,0,0,0,.5,2.6c.5.2.6.1,1.1-.1s.9-.6.9-1.6a1.4,1.4,0,0,0-.5-1A1.3,1.3,0,0,0,16.7,3.3Zm-6,.5c-.4.1-.4.2-.4.9v.8H11c.6.1.8,0,.9-.4S11.8,3.6,10.7,3.8Zm-2.8.6a1,1,0,0,0-.1,1.3,1,1,0,0,0,1.6-.1c.3-.4.3-.5.1-.9A1.1,1.1,0,0,0,7.9,4.4Zm4.9,0a1.5,1.5,0,0,0-.2.8c0,.6.1.7.4.8s1.7-.4,1.3-1.4-.2-.4-.7-.4S12.9,4.2,12.8,4.4Zm-7,1.4a1.2,1.2,0,0,0-.1,1.4c.1.2.4.2.9.2s.7-.1.8-.7,0-.8-.2-.9A1.2,1.2,0,0,0,5.8,5.8Zm9,.1a1.9,1.9,0,0,0,0,1.3c.1.4,1.3.3,1.7-.1s.3-.7-.1-1.2A1,1,0,0,0,14.8,5.9ZM1.2,6.4a1.8,1.8,0,0,0,0,2.2,2.2,2.2,0,0,0,2.2,0,1.8,1.8,0,0,0,.1-2.1c-.3-.4-.5-.4-1.2-.4A1.8,1.8,0,0,0,1.2,6.4Zm17.6-.1a1.6,1.6,0,0,0,.3,2.5A1.8,1.8,0,0,0,21,8.5a2,2,0,0,0,0-2.1A2.2,2.2,0,0,0,18.8,6.3Zm-8.2.2a.6.6,0,0,0,.6.9c.5-.1.4-1.1-.1-1.1A.4.4,0,0,0,10.6,6.5Zm-1.7.2c-.2.2-.1,1,.2,1.1s1.3-.5.9-1A1.1,1.1,0,0,0,8.9,6.7Zm3.3,0a.9.9,0,0,0,.2,1.1c.3.1.4.1.7-.2s.4-.3.2-.6S12.4,6.4,12.2,6.7Zm-4.7,1a.8.8,0,0,0,0,.7c.1.5.7.6,1,0s.3-.4,0-.7S7.6,7.3,7.5,7.7Zm6,.3c0,.9.8,1.1,1.1.4s0-1-.6-1S13.5,7.5,13.5,8Zm-9-.1A1,1,0,0,0,5,9.7,1,1,0,0,0,6.1,8.6a1.3,1.3,0,0,0-1-1Zm11.9,0c-.4.3-.5.7-.1,1.3s.3.5.7.5a1,1,0,0,0,.5-1.9C16.9,7.6,16.9,7.6,16.4,7.9Zm-5.9.9a2.6,2.6,0,0,0-1.9,2.3,2.7,2.7,0,0,0,1.1,2,2.3,2.3,0,0,0,2.7,0A2.4,2.4,0,0,0,10.5,8.8Zm-3.9.3A.9.9,0,0,0,7,10.2a.7.7,0,0,0,.7-.9c-.1-.4-.3-.5-.5-.5A.6.6,0,0,0,6.6,9.1Zm7.8.1c-.2.9.8,1.4,1.2.6a.7.7,0,0,0-.7-1C14.6,8.8,14.5,8.9,14.4,9.2ZM.5,10.1a1.4,1.4,0,0,0,1,2.5c.8,0,1.2-.2,1.4-.8A1.4,1.4,0,0,0,1.6,9.7,1.4,1.4,0,0,0,.5,10.1Zm18.9,0a1.4,1.4,0,0,0,1.1,2.5c1,0,1.4-.4,1.4-1.5s-.4-1.4-1.4-1.4A1.4,1.4,0,0,0,19.4,10.1Zm-15.6.6a.9.9,0,0,0,.7,1.4c.7,0,1-.3,1-.9s-.2-1-.9-1S3.9,10.3,3.8,10.7Zm13-.3a1.4,1.4,0,0,0,0,1.5l.7.2c.7,0,1-.3,1-1a1.2,1.2,0,0,0-.2-.7A1.4,1.4,0,0,0,16.8,10.4Zm-1.8.4a.5.5,0,0,0,.2.9.6.6,0,0,0,.6-.8C15.5,10.5,15.3,10.5,15,10.8ZM6.1,11c-.1.4.2.6.7.5s.5-.1.5-.4S6.3,10.5,6.1,11Zm.5,1.3c-.2.6,0,1.1.5,1.1s.5,0,.6-.4a1.7,1.7,0,0,0-.1-.7A.7.7,0,0,0,6.6,12.3Zm7.9,0c-.3.4,0,1.2.4,1.2a.7.7,0,0,0,.7-1A.7.7,0,0,0,14.5,12.3Zm-10.2.6a1.4,1.4,0,0,0,.1,1.4l.7.2c.6,0,1-.3,1-.8a1,1,0,0,0-1-1.1C4.7,12.6,4.4,12.7,4.3,12.9Zm11.9.2c-.3.8,0,1.4.8,1.4s1.4-.7.8-1.5-.4-.4-.8-.4S16.4,12.7,16.2,13.1Zm-14.6.4c-.6.2-.7.4-.7,1.3s.4,1.4,1.4,1.4a1.4,1.4,0,0,0,1.5-1.6c-.1-.4-.2-.8-.4-.9A2.2,2.2,0,0,0,1.6,13.5Zm17.5-.1a1.6,1.6,0,0,0-.7,1.7,1.2,1.2,0,0,0,1.4,1.1c.7,0,.9,0,1.2-.5a1.6,1.6,0,0,0-.1-1.9A2,2,0,0,0,19.1,13.4Zm-11.6.5c-.2.6,0,1,.5.9a.7.7,0,0,0,0-1.3C7.7,13.5,7.6,13.6,7.5,13.9Zm6.2-.3c-.1,0-.2.3-.2.6s-.1.5-.3.4-.9-.2-1,.2-.4.5-.5.1-.8-.3-1.1-.1a.6.6,0,0,1-.7-.1c-.6-.5-1.1-.3-1.1.4s.1.5.7.5a1,1,0,0,1,.9.4c.3.4.3.4-.1.8s-.5.5-.5.4l-.4-.5a.7.7,0,0,0-.8-.5.9.9,0,0,0-1,1c0,.8,1.3,1.3,1.7.6s.2-.2.8.4.6.7.3.9l-.4.2c-.2,0-.7,1-.7,1.4a2.6,2.6,0,0,0,.4,1c.4.5.5.6,1.4.6s1-.1,1.2-.4a1.8,1.8,0,0,0-.4-2.7c-.6-.3-.6-.5-.2-.6a1.2,1.2,0,0,0-.1-2c-.4-.1-.4-.1,0-.5s.5-.5.9-.4.7,0,.8-.4.4-.5.7-.5.9-.4.6-.9S14.2,13.4,13.7,13.6ZM5.6,15.3A1,1,0,0,0,7,16.6c.4-.2.4-.3.4-.9v-.8H6.5C5.8,14.8,5.7,14.9,5.6,15.3Zm9.1,0c-.1.6.2,1.3.5,1.4a1.4,1.4,0,0,0,1.4-.5c.2-.4.2-.5-.1-.9s-.4-.5-1-.5S14.8,14.9,14.7,15.3ZM3.4,16.8a1.3,1.3,0,0,0-.3,1.9,1.4,1.4,0,0,0,2.1.5A1.6,1.6,0,0,0,5,16.5C4.3,16.1,4.1,16.2,3.4,16.8Zm9.4-.5c-.3.2-.2,1.4,0,1.6s.5.2.9.2.9-.7.6-1.4-.2-.5-.7-.5Zm4.3.2a1.5,1.5,0,0,0-.4,2.5,1.4,1.4,0,0,0,2.5-1.1,1.4,1.4,0,0,0-1-1.5C17.6,16.2,17.6,16.2,17.1,16.5ZM6.4,18.7c-.3.2-.3.5-.3,1.2s0,1,.3,1.2a2,2,0,0,0,2.1,0,2.7,2.7,0,0,0,.1-2.3A2.4,2.4,0,0,0,6.4,18.7Zm7.5-.1c-.6.2-.8,1.2-.6,1.9s.6.9,1.5.9a1.3,1.3,0,0,0,1.4-1.5C16.2,18.8,15.1,18.2,13.9,18.6Z"/>
</svg>